<svg xmlns="http://www.w3.org/2000/svg" viewBox="0 0 265.84 265.84" fill="#010002"><path d="M132.92 265.837c73.3 0 132.92-59.623 132.92-132.92S206.2.003 132.92.003 0 59.63 0 132.923s59.623 132.914 132.92 132.914zm0-254.956c67.292 0 122.042 54.744 122.042 122.042S200.212 254.96 132.92 254.96 10.878 200.215 10.878 132.923 65.622 10.88 132.92 10.88zM25.613 142.37a5.43 5.43 0 0 0 7.69 0c19.107-19.107 42.795-31.922 68.565-37.5-7.283 7.452-11.786 17.623-11.786 28.838 0 22.773 18.53 41.304 41.304 41.304s41.304-18.53 41.304-41.3c0-11.215-4.5-21.386-11.786-28.838 25.77 5.57 49.457 18.384 68.565 37.5 1.06 1.06 2.453 1.594 3.845 1.594a5.42 5.42 0 0 0 3.845-1.594 5.43 5.43 0 0 0 0-7.69c-28.272-28.278-65.834-43.85-105.773-43.85s-77.5 15.572-105.773 43.85a5.45 5.45 0 0 0-.001 7.697zm136.2-8.66c0 16.774-13.647 30.426-30.426 30.426S100.96 150.5 100.96 133.7s13.647-30.426 30.426-30.426 30.426 13.652 30.426 30.426z"/></svg>