<?xml version="1.0" encoding="utf-8"?>
<!-- Generator: Adobe Illustrator 19.0.0, SVG Export Plug-In . SVG Version: 6.00 Build 0)  -->
<svg version="1.1" id="Layer_1" xmlns="http://www.w3.org/2000/svg" xmlns:xlink="http://www.w3.org/1999/xlink" x="0px" y="0px"
	 viewBox="0 0 368.9 80.4" style="enable-background:new 0 0 368.9 80.4;" xml:space="preserve">
<style type="text/css">
	.st0{fill-rule:evenodd;clip-rule:evenodd;fill:#FFFFFF;}
	.st1{fill:#FFFFFF;}
</style>
<path class="st0" d="M114.6,4.6c1.9,1.5,4.6,5,6.3,6.6c4.5,4.9,9,9.8,13.5,14.7c-6.4,6.5-12.7,13-19.1,19.5c-1.1-1-2.1-2-3.2-3
	c-5.4-5.6-10.9-11.3-16.2-16.9C95.7,25.2,96,25.1,96,25C102.2,18.2,108.4,11.4,114.6,4.6z M73.2,5.6c6.3,6.5,12.6,13.1,18.9,19.6
	c0,9,0,17.9,0,26.9c-6.3-6.7-12.6-13.3-18.9-20C73.2,23.3,73.2,14.4,73.2,5.6z M157.3,5.7c0,9,0.1,17.6,0.2,26.6
	c-6.3,6.6-12.8,13.6-19.1,20.3c0-9,0-18,0-27.1C144.6,18.9,151,12.3,157.3,5.7z M94.9,28.2c6.4,6.6,12.7,13.2,19.1,19.8
	c0,9,0,17.9,0,26.9c-6.4-6.7-12.7-13.4-19.1-20.1C94.9,46,94.9,37.1,94.9,28.2z M135.6,28.5c-0.1,8.7,0.1,18,0,26.8
	c-6.3,6.6-12.6,13.2-18.9,19.8c0-9,0-18,0-27.1C122.9,41.6,129.3,35.1,135.6,28.5z"/>
<path class="st1" d="M4.4,75h20.4l5-12.5h27L61.9,75h20.8L52.9,4.5H34.2L4.4,75z M35.5,47.4l7.9-19.9l7.8,19.9H35.5z"/>
<path class="st1" d="M147.9,75.2h20.4l5-12.5h27l5.1,12.5h20.8L196.4,4.7h-18.7L147.9,75.2z M179,47.6l7.9-19.9l7.8,19.9H179z"/>
<path class="st1" d="M230.5,75.2h19.2V36.8l29.9,38.4h17v-70h-19.2v37l-28.8-37h-18.1V75.2z"/>
<path class="st1" d="M323.6,75.2H343v-53h21v-17h-61.4v17h21V75.2z"/>
</svg>
