<svg xmlns="http://www.w3.org/2000/svg" viewBox="0 0 368.9 80.4" fill="#1f407d"><path d="M114.6 4.6c1.9 1.5 4.6 5 6.3 6.6l13.5 14.7-19.1 19.5-3.2-3-16.2-16.9c-.2-.3.1-.4.1-.5l18.6-20.4zm-41.4 1l18.9 19.6v26.9l-18.9-20V5.6zm84.1.1l.2 26.6-19.1 20.3V25.5l18.9-19.8zM94.9 28.2L114 48v26.9L94.9 54.8V28.2zm40.7.3v26.8l-18.9 19.8V48l18.9-19.5z" fill-rule="evenodd"/><path d="M4.4 75h20.4l5-12.5h27L61.9 75h20.8L52.9 4.5H34.2L4.4 75zm31.1-27.6l7.9-19.9 7.8 19.9H35.5zm112.4 27.8h20.4l5-12.5h27l5.1 12.5h20.8L196.4 4.7h-18.7l-29.8 70.5zM179 47.6l7.9-19.9 7.8 19.9H179zm51.5 27.6h19.2V36.8l29.9 38.4h17v-70h-19.2v37l-28.8-37h-18.1v70zm93.1 0H343v-53h21v-17h-61.4v17h21v53z"/></svg>