<svg xmlns="http://www.w3.org/2000/svg" viewBox="0 0 512 512"><path d="M375.035 225.124c-2.452-6.204-9.47-9.242-15.675-6.792a12.08 12.08 0 0 0-6.792 15.675c6.14 15.525 9.25 31.933 9.25 48.77 0 73.14-59.503 132.645-132.645 132.645S96.515 355.917 96.515 282.777s59.5-132.645 132.658-132.645c16.896 0 33.332 3.13 48.852 9.306a12.08 12.08 0 1 0 8.932-22.446c-18.374-7.312-37.816-11.02-57.783-11.02-86.468 0-156.817 70.34-156.817 156.803S142.703 439.58 229.173 439.58c86.46 0 156.803-70.34 156.803-156.803 0-19.9-3.682-39.287-10.94-57.653zm74.47-5.517c-1.835-6.414-8.518-10.12-14.936-8.3s-10.125 8.523-8.3 14.936c5.236 18.302 7.9 37.32 7.9 56.522 0 113.044-91.962 205.014-205 205.014-113.044 0-205.013-91.97-205.013-205.014s91.98-205.002 205.025-205.002c19.246 0 38.296 2.667 56.618 7.928a12.08 12.08 0 1 0 6.666-23.22c-20.5-5.884-41.782-8.868-63.284-8.868C102.806 53.604 0 156.4 0 282.776S102.806 511.95 229.172 511.95c126.358 0 229.158-102.806 229.158-229.173 0-21.452-2.97-42.705-8.824-63.17zM313.278 275.4c-.592-6.645-6.463-11.525-13.105-10.958a12.08 12.08 0 0 0-10.958 13.106 59.27 59.27 0 0 1 .23 5.228c0 33.237-27.04 60.275-60.275 60.275-33.244 0-60.3-27.04-60.3-60.275.002-33.245 27.047-60.3 60.3-60.3 1.857 0 3.675.08 5.406.24a12.08 12.08 0 0 0 13.138-10.92c.612-6.643-4.277-12.524-10.92-13.138-2.464-.227-5.03-.342-7.623-.342-46.565 0-84.45 37.882-84.45 84.448 0 46.558 37.884 84.434 84.45 84.434 46.557 0 84.434-37.876 84.434-84.434-.001-2.46-.1-4.944-.33-7.374zM510.15 81.264a24.09 24.09 0 0 0-22.326-14.918h-42.12V24.228a24.09 24.09 0 0 0-14.918-22.326c-9.058-3.752-19.4-1.695-26.325 5.24L334.085 77.52c-6.842 6.84-10.6 15.94-10.6 25.618v68.355l-98.17 98.17c-4.717 4.717-4.717 12.366 0 17.084a12.04 12.04 0 0 0 17.08 0l98.17-98.17H408.9a35.99 35.99 0 0 0 25.618-10.608l70.377-70.38c6.936-6.935 8.992-17.266 5.24-26.323zm-162.514 21.87a11.99 11.99 0 0 1 3.534-8.534l70.376-70.366v49.188l-73.9 73.9v-44.2zm69.815 57.747c-2.244 2.244-5.356 3.533-8.535 3.533H364.72l73.9-73.9 49.192.006-70.37 70.37z"/></svg>